PathFileType  4	(X/Y/Z) C:\Users\antoi\Documents\MyRepositories\mobilecap\ResultsAnalysis
DataRate	CameraRate	NumFrames	NumMarkers	Units	OrigDataRate	OrigDataStartFrame	OrigNumFrames
100.0	100.0	4	51	mm	100.0	128	341
Frame#	Time	r_knee			r_shank_antsup			r_ankle			r_calc			r_5meta			r_toe			L_knee			L_shank_antsup			L_ankle			L_calc			L_5meta			L_toe			r_sh2			r_sh3			r_sh4			L_sh2			L_sh3			r_thigh1			r_thigh2			r_thigh3			r_thigh4			r_thigh5			L_thigh1			L_thigh2			L_thigh3			L_thigh4			r.ASIS			r.PSIS			L.ASIS			L.PSIS			C7			R_Shoulder			L_Shoulder			R_Sternum			L_Sternum			R_humerus			R_elbow_med			R_elbow_lat			R_forearm			R_wrist_radius			R_wrist_ulna			L_humerus			L_elbow_med			L_elbow_lat			L_forearm			L_wrist_radius			L_wrist_ulna			R_HJC			L_HJC			R_HJC_reg			L_HJC_reg			
		X1	Y1	Z1	X2	Y2	Z2	X3	Y3	Z3	X4	Y4	Z4	X5	Y5	Z5	X6	Y6	Z6	X7	Y7	Z7	X8	Y8	Z8	X9	Y9	Z9	X10	Y10	Z10	X11	Y11	Z11	X12	Y12	Z12	X13	Y13	Z13	X14	Y14	Z14	X15	Y15	Z15	X16	Y16	Z16	X17	Y17	Z17	X18	Y18	Z18	X19	Y19	Z19	X20	Y20	Z20	X21	Y21	Z21	X22	Y22	Z22	X23	Y23	Z23	X24	Y24	Z24	X25	Y25	Z25	X26	Y26	Z26	X27	Y27	Z27	X28	Y28	Z28	X29	Y29	Z29	X30	Y30	Z30	X31	Y31	Z31	X32	Y32	Z32	X33	Y33	Z33	X34	Y34	Z34	X35	Y35	Z35	X36	Y36	Z36	X37	Y37	Z37	X38	Y38	Z38	X39	Y39	Z39	X40	Y40	Z40	X41	Y41	Z41	X42	Y42	Z42	X43	Y43	Z43	X44	Y44	Z44	X45	Y45	Z45	X46	Y46	Z46	X47	Y47	Z47	X48	Y48	Z48	X49	Y49	Z49	X50	Y50	Z50	X51	Y51	Z51	

128	1.27000000	-1072.65514	769.08859	-422.04558	-1100.99828	732.05751	-394.12516	-1232.89352	407.90031	-455.45940	-1294.33346	364.77603	-509.89194	-1119.60704	347.30747	-411.64831	-1074.60489	369.60284	-463.58904	-1080.74036	769.42229	-737.21021	-1066.84152	679.58929	-750.01498	-1233.29112	405.61352	-705.29276	-1298.10330	366.50278	-654.75141	-1120.55361	351.21440	-734.40242	-1075.30554	370.13622	-680.08074	-1145.48191	625.19284	-393.80740	-1034.59759	710.72452	-428.41637	-1081.32038	605.24502	-447.64384	-1143.79146	722.35843	-760.34133	-1192.60141	610.66851	-753.52810	-1112.41252	1064.89831	-477.39220	-1056.05444	970.21876	-461.95959	-1065.46005	945.51992	-399.13271	-1168.32474	1044.50880	-381.41879	-1117.53090	941.89057	-375.89865	-1169.92379	1074.82861	-753.70759	-1118.57125	941.72252	-767.45580	-1276.08206	1030.05377	-748.31230	-1225.94728	900.95782	-730.45148	-1138.95471	1172.19030	-450.17894	-1304.82588	1274.34215	-525.71226	-1147.13893	1151.73534	-680.45913	-1306.47402	1272.97774	-623.66894	-990.11680	1645.23517	-595.88892	-933.79840	1569.89986	-430.14964	-963.38384	1562.67669	-757.76747	-949.81912	1502.54273	-570.67591	-950.05758	1498.89171	-606.97976	-1096.65253	1408.52431	-320.30863	-1203.99475	1394.20270	-337.26969	-1177.29810	1373.11861	-288.16419	-1242.50597	1250.53253	-249.73564	-1302.65314	1161.03610	-245.66770	-1321.34916	1189.61315	-218.23941	-1137.09042	1407.86099	-841.84848	-1242.53390	1372.77068	-796.11042	-1226.74387	1364.07351	-854.36200	-1283.97120	1233.56655	-884.85194	-1329.32792	1133.77691	-878.52640	-1363.72622	1158.15539	-891.08558	-1241.83830	1125.48704	-477.56592	-1254.24732	1124.40891	-667.83023	-1232.83080	1125.56337	-479.64610	-1235.39162	1123.42476	-632.29384	
129	1.28000000	-1070.18566	767.62146	-421.87135	-1098.30111	730.96021	-393.68987	-1232.61680	406.74487	-455.56478	-1294.32185	364.77117	-509.89338	-1119.69783	347.00739	-411.91469	-1074.58093	369.52173	-463.57339	-1078.46782	768.55762	-737.09805	-1064.86587	678.73162	-750.07308	-1233.05821	405.81301	-705.30846	-1298.05295	366.57488	-654.68977	-1120.56942	351.19813	-734.40392	-1075.19652	370.13191	-680.17841	-1143.65850	624.07479	-393.90656	-1031.99408	709.03354	-428.21236	-1079.51305	604.14105	-447.93222	-1141.52431	721.96526	-760.13392	-1191.30916	610.59463	-753.13691	-1113.72279	1062.83889	-477.04107	-1055.78759	968.93221	-461.53858	-1065.15517	944.07045	-398.78782	-1169.31840	1041.66020	-380.99461	-1117.01890	939.84020	-375.41950	-1171.67425	1072.21051	-753.48837	-1118.35160	939.95837	-767.19331	-1277.15391	1026.29585	-747.64688	-1223.48501	898.73399	-731.76947	-1140.09554	1167.04421	-449.48888	-1304.53598	1271.36450	-525.11671	-1148.82757	1146.57465	-680.21673	-1306.19962	1269.96674	-622.81183	-982.86541	1636.28142	-595.84601	-927.04972	1559.51493	-430.00264	-957.45482	1552.32318	-757.82188	-944.78631	1492.38899	-570.39934	-945.27067	1488.81806	-606.86429	-1096.79682	1405.21276	-320.09515	-1204.17059	1395.01578	-338.68868	-1179.08085	1373.73306	-288.80534	-1251.05221	1256.23703	-248.17296	-1316.47199	1170.36164	-242.76593	-1333.63220	1200.59080	-216.22230	-1137.20458	1404.08186	-841.24786	-1244.13953	1373.81758	-795.89081	-1228.25209	1364.29842	-853.35952	-1293.48742	1237.95498	-884.38890	-1345.46244	1141.71197	-879.71465	-1378.13732	1168.45437	-892.11485	-1243.57119	1121.68188	-476.92929	-1256.23263	1120.74280	-667.17724	-1234.76912	1121.54789	-478.99758	-1237.36512	1119.34398	-631.95300	
130	1.29000000	-1067.70235	766.27788	-421.76728	-1095.52075	729.55385	-393.86806	-1232.09662	404.58952	-455.72657	-1294.31532	364.77738	-509.88425	-1119.86934	346.63969	-412.36417	-1074.55266	369.47014	-463.54653	-1076.22123	767.49611	-736.85121	-1062.90826	677.81720	-750.14815	-1232.86012	405.96985	-705.30496	-1297.99605	366.65371	-654.62304	-1120.58445	351.18720	-734.40236	-1075.15051	370.08556	-680.24782	-1141.73768	623.27819	-393.93649	-1029.49890	707.43707	-428.25988	-1077.69896	602.97223	-448.20803	-1139.37004	721.46329	-759.65311	-1189.90435	610.41853	-752.78031	-1114.92345	1060.80682	-476.64759	-1055.50514	967.82887	-461.12943	-1064.93253	942.53821	-398.47709	-1170.33732	1038.64428	-380.68010	-1116.67933	937.60179	-375.10932	-1173.14022	1069.58503	-753.01437	-1118.23103	938.02321	-766.58795	-1278.24413	1022.49414	-746.88088	-1221.69522	896.14087	-732.34581	-1141.20232	1161.77044	-448.80450	-1304.32823	1268.52562	-524.15002	-1150.20336	1141.51094	-679.89270	-1305.90405	1266.94210	-622.06876	-975.97903	1627.35731	-595.88074	-920.19733	1548.96021	-429.76253	-951.38725	1541.72786	-758.02950	-939.78265	1482.25918	-570.43690	-940.50273	1478.65215	-606.78835	-1096.53515	1401.83404	-320.12197	-1203.75462	1395.41491	-340.60294	-1180.18568	1374.19072	-289.72343	-1258.42047	1261.78011	-247.35434	-1328.52822	1179.70935	-240.63425	-1344.38734	1211.35688	-215.05197	-1136.88150	1400.01903	-840.42641	-1245.53347	1374.57440	-796.04802	-1229.39398	1363.94144	-851.82231	-1301.76481	1242.52948	-883.90634	-1359.83515	1150.09956	-880.86084	-1390.92906	1178.92340	-892.65994	-1245.25847	1117.82743	-476.30413	-1258.04847	1117.19348	-666.54475	-1236.67735	1117.78030	-478.40172	-1239.14572	1115.30914	-631.57803	
131	1.30000000	-1065.18085	764.95540	-421.72640	-1092.73220	728.17331	-394.33636	-1231.69548	403.39485	-455.86806	-1294.31354	364.78788	-509.87784	-1120.16029	346.07171	-413.08329	-1074.51155	369.37843	-463.59848	-1074.09338	766.18712	-736.33630	-1060.97188	676.72807	-750.12543	-1232.72336	406.08450	-705.20169	-1297.95742	366.74023	-654.55036	-1120.59429	351.18844	-734.39774	-1075.15195	370.02335	-680.26932	-1139.45082	622.83572	-393.82244	-1027.03056	705.90780	-428.47988	-1075.99031	601.66280	-448.37961	-1137.24865	720.92982	-759.19327	-1188.37310	610.18930	-752.54810	-1116.04373	1058.64243	-476.20085	-1055.37865	966.66659	-460.76687	-1064.68964	940.93926	-398.13023	-1171.26258	1035.60721	-380.27629	-1116.44679	935.19044	-374.98828	-1174.47677	1066.85780	-752.61868	-1118.06331	935.96123	-766.20165	-1279.21053	1018.67713	-746.37705	-1221.12626	892.92680	-731.61857	-1142.27356	1156.33727	-448.21076	-1303.87315	1265.35011	-523.67593	-1151.53469	1136.19483	-679.29076	-1305.56263	1263.81439	-621.57952	-969.32766	1618.43551	-595.89400	-913.36471	1538.31429	-429.55924	-945.29759	1531.01077	-758.15130	-934.00498	1472.70719	-572.02748	-934.91911	1468.66571	-607.36602	-1095.78644	1398.28512	-320.44000	-1202.70579	1395.34403	-342.78354	-1180.64181	1374.23456	-291.05014	-1264.61845	1266.89369	-247.30959	-1338.82317	1188.64496	-239.31836	-1353.40249	1221.62665	-214.63315	-1136.21620	1395.63894	-839.36827	-1245.76270	1374.58392	-795.01843	-1230.16772	1362.93369	-849.79453	-1308.80907	1247.13681	-883.54507	-1372.49848	1158.41498	-881.60469	-1402.00048	1189.28769	-892.85706	-1246.95371	1113.86780	-475.75126	-1259.71239	1113.37292	-665.99497	-1238.27372	1113.68208	-477.73383	-1240.91768	1111.28212	-630.90406	
